# xmcd
#
# Track frame offsets: 
#        150
#        9267
#        18860
#        32543
#        43656
#        54970
#        72448
#        84702
#        94712
#        105404
#
# Disc length: 1522 seconds
#
# Revision: 0
# Processed by: cddbd v1.5.2PL0 Copyright (c) Steve Scherf et al.
# Submitted via: ExactAudioCopyFreeDBPlugin 1.0
#
DISCID=6b05f00a
DTITLE=Faron Young - American Music Legends
DYEAR=2009
DGENRE=Country
TTITLE0=Hello Walls
TTITLE1=Alone With You
TTITLE2=It's Four In The Morning
TTITLE3=Goin' Steady
TTITLE4=Unmitigated Gall
TTITLE5=Sweet Dreams
TTITLE6=Country Girl
TTITLE7=If You Ain't Lovin', You Ain't Livin'
TTITLE8=Wine Me Up
TTITLE9=Live Fast, Love Hard, Die Young
EXTD=
EXTT0=
EXTT1=
EXTT2=
EXTT3=
EXTT4=
EXTT5=
EXTT6=
EXTT7=
EXTT8=
EXTT9=
PLAYORDER=
